<svg xmlns="http://www.w3.org/2000/svg" xmlns:xlink="http://www.w3.org/1999/xlink">
    <defs>

        <svg id="person" width="16" height="22" viewBox="0 0 16 22" fill="none"  stroke="currentColor" stroke-width="2" stroke-linejoin="round"  xmlns="http://www.w3.org/2000/svg">
        <path fill-rule="evenodd" clip-rule="evenodd" d="M7.84455 20.6619C4.15273 20.6619 1 20.0874 1 17.7867C1 15.4859 4.13273 13.3619 7.84455 13.3619C11.5364 13.3619 14.6891 15.4653 14.6891 17.7661C14.6891 20.0659 11.5564 20.6619 7.84455 20.6619Z" />
        <path fill-rule="evenodd" clip-rule="evenodd" d="M7.83652 10.1737C10.2592 10.1737 12.2229 8.21002 12.2229 5.7873C12.2229 3.36457 10.2592 1.40002 7.83652 1.40002C5.41379 1.40002 3.44924 3.36457 3.44924 5.7873C3.44106 8.20184 5.39106 10.1655 7.80561 10.1737C7.81652 10.1737 7.82652 10.1737 7.83652 10.1737Z" />
        </svg>

       

        <svg id="order" width="17" height="18" viewBox="0 0 17 18" fill="none" stroke="currentColor" stroke-linejoin="round"  xmlns="http://www.w3.org/2000/svg">
<path d="M4.125 16.3253L3.96989 17.3132L4.125 16.3253ZM8.5 16.625V15.625V16.625ZM12.875 16.3253L13.0301 17.3132L12.875 16.3253ZM14.0607 6.39045L13.1765 6.85754L14.0607 6.39045ZM2.05506 5.92336C1.18495 7.57048 0 10.199 0 12.875H2C2 10.7148 2.98068 8.45297 3.82348 6.85754L2.05506 5.92336ZM0 12.875C0 14.039 0.38245 15.0751 1.11015 15.8673C1.83192 16.6531 2.8334 17.1347 3.96989 17.3132L4.28011 15.3374C3.50756 15.2161 2.94654 14.9101 2.58307 14.5144C2.22553 14.1251 2 13.586 2 12.875H0ZM3.96989 17.3132C5.13788 17.4965 6.57892 17.625 8.5 17.625V15.625C6.67108 15.625 5.33452 15.5029 4.28011 15.3374L3.96989 17.3132ZM13.1765 6.85754C14.0193 8.45297 15 10.7148 15 12.875H17C17 10.199 15.815 7.57048 14.9449 5.92336L13.1765 6.85754ZM15 12.875C15 13.586 14.7745 14.1251 14.4169 14.5144C14.0535 14.9101 13.4924 15.2161 12.7199 15.3374L13.0301 17.3132C14.1666 17.1347 15.1681 16.6531 15.8898 15.8673C16.6176 15.0751 17 14.039 17 12.875H15ZM12.7199 15.3374C11.6655 15.5029 10.3289 15.625 8.5 15.625V17.625C10.4211 17.625 11.8621 17.4965 13.0301 17.3132L12.7199 15.3374ZM4.66065 6.375H12.3394V4.375H4.66065V6.375ZM14.9449 5.92336C14.4267 4.94241 13.4064 4.375 12.3394 4.375V6.375C12.7078 6.375 13.0242 6.56928 13.1765 6.85754L14.9449 5.92336ZM3.82348 6.85754C3.97576 6.56928 4.29222 6.375 4.66065 6.375V4.375C3.59365 4.375 2.57326 4.9424 2.05506 5.92336L3.82348 6.85754Z"/>
<path d="M7.25 8.75C6.69772 8.75 6.25 9.19772 6.25 9.75C6.25 10.3023 6.69772 10.75 7.25 10.75V8.75ZM9.75 10.75C10.3023 10.75 10.75 10.3023 10.75 9.75C10.75 9.19772 10.3023 8.75 9.75 8.75V10.75ZM7.25 10.75H9.75V8.75H7.25V10.75Z"/>
<path d="M6.375 5.38663V4.125H4.375V5.38663H6.375ZM10.625 4.125V5.38663H12.625V4.125H10.625ZM8.5 2C9.67361 2 10.625 2.95139 10.625 4.125H12.625C12.625 1.84682 10.7782 0 8.5 0V2ZM6.375 4.125C6.375 2.95139 7.32639 2 8.5 2V0C6.22183 0 4.375 1.84682 4.375 4.125H6.375Z"/>
</svg>


        <svg id="heart" width="22" height="20" viewBox="0 0 22 20" fill="none"  stroke="currentColor" stroke-width="2" stroke-linejoin="round" xmlns="http://www.w3.org/2000/svg">
        <path fill-rule="evenodd" clip-rule="evenodd" d="M1.92251 10.4463C0.849511 7.09631 2.10451 2.93131 5.62151 1.79931C7.47151 1.20231 9.75451 1.70031 11.0515 3.48931C12.2745 1.63431 14.6235 1.20631 16.4715 1.79931C19.9875 2.93131 21.2495 7.09631 20.1775 10.4463C18.5075 15.7563 12.6805 18.5223 11.0515 18.5223C9.42351 18.5223 3.64851 15.8183 1.92251 10.4463Z" />
        <path d="M14.7891 5.56403C15.9961 5.68803 16.7511 6.64503 16.7061 7.98603" />
        </svg>

        <svg id="group" width="26" height="25" viewBox="0 0 26 25" fill="none"  stroke="currentColor" stroke-width="2" stroke-linejoin="round" xmlns="http://www.w3.org/2000/svg">
        <path d="M6.54593 8.06842C3.53198 8.06842 0.670843 10.2711 1.03071 13.3111C1.05867 13.5473 1.09204 13.7951 1.13081 14.0587C1.24618 14.843 1.91943 15.4129 2.70008 15.4129H3.59243L4.24347 19.5192C4.4275 20.6799 5.41367 21.5334 6.57097 21.5334C7.72827 21.5334 8.71443 20.6799 8.89847 19.5192L9.54951 15.4129H10.4533C11.2289 15.4129 11.9002 14.8508 12.0185 14.0721C12.0563 13.8233 12.0888 13.5883 12.116 13.363C12.4851 10.3013 9.58218 8.06842 6.54593 8.06842Z" />
        <path d="M19.3975 8.06842C16.3835 8.06842 13.5224 10.2711 13.8823 13.3111C13.9102 13.5473 13.9436 13.7951 13.9824 14.0587C14.0977 14.843 14.771 15.4129 15.5516 15.4129H16.444L17.095 19.5192C17.2791 20.6799 18.2652 21.5334 19.4225 21.5334C20.5798 21.5334 21.566 20.6799 21.75 19.5192L22.4011 15.4129H23.3049C24.0805 15.4129 24.7517 14.8508 24.8701 14.0721C24.9079 13.8233 24.9404 13.5883 24.9675 13.363C25.3367 10.3013 22.4337 8.06842 19.3975 8.06842Z" />
        <path d="M12.9717 9.70056C9.95777 9.70056 7.09662 11.9032 7.45649 14.9433C7.48445 15.1794 7.51783 15.4272 7.55659 15.6908C7.67196 16.4752 8.34521 17.0451 9.12586 17.0451H10.0182L10.6692 21.1513C10.8533 22.3121 11.8395 23.1655 12.9967 23.1655C14.154 23.1655 15.1402 22.3121 15.3243 21.1513L15.9753 17.0451H16.8791C17.6547 17.0451 18.326 16.4829 18.4443 15.7042C18.4821 15.4554 18.5146 15.2204 18.5418 14.9951C18.9109 11.9334 16.008 9.70056 12.9717 9.70056Z"  />
        <path d="M6.57438 7.66041C8.3489 7.66041 9.78743 6.19897 9.78743 4.39618C9.78743 2.5934 8.3489 1.13196 6.57438 1.13196C4.79986 1.13196 3.36133 2.5934 3.36133 4.39618C3.36133 6.19897 4.79986 7.66041 6.57438 7.66041Z"  />
        <path d="M19.4259 7.66041C21.2005 7.66041 22.639 6.19897 22.639 4.39618C22.639 2.5934 21.2005 1.13196 19.4259 1.13196C17.6514 1.13196 16.2129 2.5934 16.2129 4.39618C16.2129 6.19897 17.6514 7.66041 19.4259 7.66041Z"  />
        <path d="M13.0002 9.29255C14.7747 9.29255 16.2132 7.83111 16.2132 6.02833C16.2132 4.22554 14.7747 2.7641 13.0002 2.7641C11.2256 2.7641 9.78711 4.22554 9.78711 6.02833C9.78711 7.83111 11.2256 9.29255 13.0002 9.29255Z"  />
        </svg>

        <svg id="users" width="24" height="20" viewBox="0 0 24 20" fill="none"  stroke="currentColor" stroke-width="2" stroke-linejoin="round" xmlns="http://www.w3.org/2000/svg">
        <path fill-rule="evenodd" clip-rule="evenodd" d="M11.9728 18.3682C8.7338 18.3682 5.9668 17.8782 5.9668 15.9162C5.9668 13.9542 8.7158 12.2462 11.9728 12.2462C15.2118 12.2462 17.9788 13.9382 17.9788 15.8992C17.9788 17.8602 15.2298 18.3682 11.9728 18.3682Z" />
        <path fill-rule="evenodd" clip-rule="evenodd" d="M11.9731 9.44869C14.0991 9.44869 15.8231 7.72569 15.8231 5.59969C15.8231 3.47369 14.0991 1.74969 11.9731 1.74969C9.84706 1.74969 8.12306 3.47369 8.12306 5.59969C8.11706 7.71769 9.82706 9.44169 11.9461 9.44869H11.9731Z" />
        <path d="M18.3633 8.3916C19.6003 8.0606 20.5123 6.9326 20.5123 5.5896C20.5123 4.1886 19.5193 3.0186 18.1973 2.7486" />
        <path d="M18.9434 11.5444C20.6974 11.5444 22.1954 12.7334 22.1954 13.7954C22.1954 14.4204 21.6784 15.1014 20.8944 15.2854" />
        <path d="M5.58359 8.3916C4.34559 8.0606 3.43359 6.9326 3.43359 5.5896C3.43359 4.1886 4.42759 3.0186 5.74859 2.7486" />
        <path d="M5.002 11.5444C3.248 11.5444 1.75 12.7334 1.75 13.7954C1.75 14.4204 2.267 15.1014 3.052 15.2854" />
        </svg>

        <svg id="bell" width="18" height="22" viewBox="0 0 18 22" fill="none"  stroke="currentColor" stroke-width="2" stroke-linejoin="round" xmlns="http://www.w3.org/2000/svg">
        <path fill-rule="evenodd" clip-rule="evenodd" d="M8.99687 1.51416C4.56259 1.51416 2.63592 5.5294 2.63592 8.18368C2.63592 10.1675 2.92354 9.58368 1.82544 12.0037C0.484492 15.4523 5.87687 16.8618 8.99687 16.8618C12.1159 16.8618 17.5083 15.4523 16.1683 12.0037C15.0702 9.58368 15.3578 10.1675 15.3578 8.18368C15.3578 5.5294 13.4302 1.51416 8.99687 1.51416Z" />
        <path d="M11.3075 19.5121C10.0132 20.9579 7.99417 20.975 6.6875 19.5121" />
        </svg>

        <svg id="start" width="26" height="25" viewBox="0 0 26 25" fill="none"  stroke="currentColor" stroke-width="2" stroke-linejoin="round" xmlns="http://www.w3.org/2000/svg">
        <path d="M16.2614 8.95252L15.3362 9.33196C15.4781 9.67809 15.8014 9.91603 16.1741 9.9487L16.2614 8.95252ZM13 19.2942L13.5559 18.4629C13.2195 18.2379 12.7805 18.2379 12.4441 18.4629L13 19.2942ZM9.73861 8.95252L9.82593 9.9487C10.1986 9.91603 10.5219 9.67809 10.6638 9.33196L9.73861 8.95252ZM1.94644 10.496L1.31168 11.2687L1.94644 10.496ZM2.22016 9.61156L2.13284 8.61538L2.22016 9.61156ZM7.49485 15.4051L6.51739 15.194L7.49485 15.4051ZM7.3235 14.9132L6.68874 15.6859L7.3235 14.9132ZM6.61129 23.5667L7.16719 24.3979L6.61129 23.5667ZM20.1554 23.0455L19.1779 23.2566L20.1554 23.0455ZM19.3887 23.5667L18.8328 24.3979L19.3887 23.5667ZM18.6765 14.9132L19.3113 15.6859L18.6765 14.9132ZM18.5052 15.4051L19.4826 15.194L18.5052 15.4051ZM23.7798 9.61156L23.8672 8.61538L23.7798 9.61156ZM24.0536 10.496L24.6883 11.2687L24.0536 10.496ZM13.4626 2.12802L14.3878 1.74858L13.4626 2.12802ZM12.5374 2.12802L11.6122 1.74858L12.5374 2.12802ZM12.5374 2.50746L15.3362 9.33196L17.1866 8.57308L14.3878 1.74858L12.5374 2.50746ZM16.1741 9.9487L23.6925 10.6077L23.8672 8.61538L16.3487 7.95634L16.1741 9.9487ZM23.4188 9.72329L18.0417 14.1405L19.3113 15.6859L24.6883 11.2687L23.4188 9.72329ZM17.5277 15.6162L19.1779 23.2566L21.1329 22.8343L19.4826 15.194L17.5277 15.6162ZM19.9446 22.7354L13.5559 18.4629L12.4441 20.1254L18.8328 24.3979L19.9446 22.7354ZM12.4441 18.4629L6.05539 22.7354L7.16719 24.3979L13.5559 20.1254L12.4441 18.4629ZM6.82207 23.2566L8.47231 15.6162L6.51739 15.194L4.86715 22.8343L6.82207 23.2566ZM7.95827 14.1405L2.58121 9.72329L1.31168 11.2687L6.68874 15.6859L7.95827 14.1405ZM2.30749 10.6077L9.82593 9.9487L9.65129 7.95634L2.13284 8.61538L2.30749 10.6077ZM10.6638 9.33196L13.4626 2.50746L11.6122 1.74858L8.8134 8.57308L10.6638 9.33196ZM2.58121 9.72329C2.92733 10.0076 2.7537 10.5686 2.30749 10.6077L2.13284 8.61538C0.794187 8.73272 0.273322 10.4157 1.31168 11.2687L2.58121 9.72329ZM8.47231 15.6162C8.59097 15.0668 8.39256 14.4972 7.95827 14.1405L6.68874 15.6859C6.54397 15.567 6.47784 15.3771 6.51739 15.194L8.47231 15.6162ZM6.05539 22.7354C6.42904 22.4855 6.91697 22.8172 6.82207 23.2566L4.86715 22.8343C4.58245 24.1525 6.04623 25.1475 7.16719 24.3979L6.05539 22.7354ZM19.1779 23.2566C19.083 22.8172 19.571 22.4855 19.9446 22.7354L18.8328 24.3979C19.9538 25.1475 21.4176 24.1525 21.1329 22.8343L19.1779 23.2566ZM18.0417 14.1405C17.6074 14.4972 17.409 15.0668 17.5277 15.6162L19.4826 15.194C19.5222 15.3771 19.456 15.567 19.3113 15.6859L18.0417 14.1405ZM23.6925 10.6077C23.2463 10.5686 23.0727 10.0076 23.4188 9.72329L24.6883 11.2687C25.7267 10.4157 25.2058 8.73272 23.8672 8.61538L23.6925 10.6077ZM14.3878 1.74858C13.8788 0.507458 12.1212 0.507454 11.6122 1.74858L13.4626 2.50746C13.2929 2.92117 12.7071 2.92116 12.5374 2.50746L14.3878 1.74858Z" fill="#112950"/>
        </svg>

        <svg id="contacts" width="22" height="24" viewBox="0 0 22 24" fill="none"  stroke="currentColor" stroke-linejoin="round" xmlns="http://www.w3.org/2000/svg">
        <path d="M3.17133 22.3531C3.17133 22.9054 3.61904 23.3531 4.17133 23.3531C4.72361 23.3531 5.17133 22.9054 5.17133 22.3531H3.17133ZM1 10.4779H2H1ZM5.1119 3.89537C5.59214 3.62263 5.76035 3.01222 5.48761 2.53198C5.21487 2.05174 4.60446 1.88352 4.12422 2.15627L5.1119 3.89537ZM4.17525 20.6131L3.17526 20.6093L4.17525 20.6131ZM3.61863 18.3772L2.75132 18.8749L3.61863 18.3772ZM3.17526 20.6093C3.1732 21.1542 3.17133 21.8008 3.17133 22.3531H5.17133C5.17133 21.8045 5.17319 21.1608 5.17524 20.6169L3.17526 20.6093ZM0 10.4779C0 12.7489 0.324274 14.2581 0.869113 15.5384C1.37942 16.7375 2.12824 17.7893 2.75132 18.8749L4.48595 17.8794C3.72219 16.5486 3.1617 15.818 2.7094 14.7552C2.29163 13.7735 2 12.5413 2 10.4779H0ZM2 10.4779C2 7.08556 3.17178 4.99722 5.1119 3.89537L4.12422 2.15627C1.38355 3.71277 0 6.59247 0 10.4779H2ZM5.17524 20.6169C5.17874 19.6908 4.97682 18.7347 4.48595 17.8794L2.75132 18.8749C3.03834 19.375 3.17766 19.9726 3.17526 20.6093L5.17524 20.6169Z" fill="#112950"/>
        <path d="M10.2734 8.84614V1.8783" />
        <path d="M10.2734 15.3917C12.3372 15.3917 13.4981 14.2123 13.4981 12.1157C13.4981 10.0191 12.3372 8.83972 10.2734 8.83972C8.20969 8.83972 7.04883 10.0191 7.04883 12.1157C7.04883 14.2123 8.20969 15.3917 10.2734 15.3917Z" fill="white"/>
        <path d="M12.4981 12.1157C12.4981 12.9842 12.2602 13.5202 11.947 13.8384C11.6361 14.1543 11.1169 14.3917 10.2734 14.3917V16.3917C11.4937 16.3917 12.5869 16.0394 13.3723 15.2414C14.1555 14.4458 14.4981 13.3438 14.4981 12.1157H12.4981ZM10.2734 14.3917C9.42999 14.3917 8.91083 14.1543 8.5999 13.8384C8.28668 13.5202 8.04883 12.9842 8.04883 12.1157H6.04883C6.04883 13.3438 6.39141 14.4458 7.17456 15.2414C7.96 16.0394 9.05314 16.3917 10.2734 16.3917V14.3917ZM8.04883 12.1157C8.04883 11.2472 8.28668 10.7112 8.5999 10.393C8.91083 10.0771 9.42999 9.83972 10.2734 9.83972V7.83972C9.05314 7.83972 7.96 8.19203 7.17456 8.98998C6.39141 9.7856 6.04883 10.8876 6.04883 12.1157H8.04883ZM10.2734 9.83972C11.1169 9.83972 11.6361 10.0771 11.947 10.393C12.2602 10.7112 12.4981 11.2472 12.4981 12.1157H14.4981C14.4981 10.8876 14.1555 9.7856 13.3723 8.98998C12.5869 8.19203 11.4937 7.83972 10.2734 7.83972V9.83972Z" fill="#112950"/>
        <path d="M11.0762 15.3341C12.6885 16.9721 15.9131 18.6677 19.9439 18.6677" stroke="#112950" stroke-width="2" stroke-linecap="round"/>
        <path d="M20.8691 14.1766L21.692 14.7448L20.8691 14.1766ZM19.8079 14.7375L19.8074 13.7375C19.7991 13.7375 19.7907 13.7376 19.7823 13.7378L19.8079 14.7375ZM18.5172 13.7701C17.9651 13.7842 17.5289 14.2432 17.543 14.7953C17.5571 15.3474 18.0161 15.7836 18.5682 15.7695L18.5172 13.7701ZM18.0753 8.29899L19.066 8.16318L18.0753 8.29899ZM14.8348 1.9645C14.341 1.71706 13.7401 1.91674 13.4927 2.41049C13.2453 2.90424 13.4449 3.5051 13.9387 3.75254L14.8348 1.9645ZM20.0462 13.6084C20.0173 13.6502 19.98 13.6828 19.9386 13.7047L20.8732 15.4728C21.2012 15.2995 21.4817 15.0493 21.692 14.7448L20.0462 13.6084ZM19.9386 13.7047C19.8973 13.7265 19.8523 13.7375 19.8074 13.7375L19.8083 15.7375C20.1798 15.7373 20.5452 15.6463 20.8732 15.4728L19.9386 13.7047ZM19.7823 13.7378L18.5172 13.7701L18.5682 15.7695L19.8334 15.7372L19.7823 13.7378ZM17.0845 8.43481C17.1759 9.10128 17.5375 9.76863 17.883 10.3195C18.2396 10.8882 18.6906 11.4992 19.0557 12.019C19.4454 12.5738 19.7412 13.03 19.8997 13.3952C20.0811 13.813 19.9365 13.7672 20.0462 13.6084L21.692 14.7448C22.2172 13.984 21.9613 13.1218 21.7344 12.5989C21.4846 12.0234 21.0751 11.4144 20.6924 10.8695C20.2852 10.2898 19.897 9.76674 19.5774 9.257C19.2466 8.72946 19.0949 8.37397 19.066 8.16318L17.0845 8.43481ZM13.9387 3.75254C15.5486 4.55935 16.75 5.99465 17.0845 8.43481L19.066 8.16318C18.6433 5.0799 17.0438 3.07154 14.8348 1.9645L13.9387 3.75254Z" fill="#112950"/>
        </svg>

        <svg id="settings" width="20" height="22" viewBox="0 0 20 22" fill="none"  stroke="currentColor" stroke-width="2" stroke-linejoin="round" xmlns="http://www.w3.org/2000/svg">
        <path fill-rule="evenodd" clip-rule="evenodd" d="M10 8.5C11.3809 8.5 12.5 9.61912 12.5 11C12.5 12.3809 11.3809 13.5 10 13.5C8.61912 13.5 7.5 12.3809 7.5 11C7.5 9.61912 8.61912 8.5 10 8.5Z" />
        <path fill-rule="evenodd" clip-rule="evenodd" d="M18.168 6.25025V6.25025C17.4845 5.05799 15.9712 4.65004 14.7885 5.33852C13.7598 5.93613 12.4741 5.18838 12.4741 3.99218C12.4741 2.61619 11.3659 1.5 9.99976 1.5V1.5C8.63365 1.5 7.52546 2.61619 7.52546 3.99218C7.52546 5.18838 6.23977 5.93613 5.21199 5.33852C4.02829 4.65004 2.51507 5.05799 1.83153 6.25025C1.14896 7.4425 1.55399 8.96665 2.73769 9.65415C3.76546 10.2527 3.76546 11.7473 2.73769 12.3459C1.55399 13.0343 1.14896 14.5585 1.83153 15.7498C2.51507 16.942 4.02829 17.35 5.21101 16.6625H5.21199C6.23977 16.0639 7.52546 16.8116 7.52546 18.0078V18.0078C7.52546 19.3838 8.63365 20.5 9.99976 20.5V20.5C11.3659 20.5 12.4741 19.3838 12.4741 18.0078V18.0078C12.4741 16.8116 13.7598 16.0639 14.7885 16.6625C15.9712 17.35 17.4845 16.942 18.168 15.7498C18.8515 14.5585 18.4455 13.0343 17.2628 12.3459H17.2618C16.2341 11.7473 16.2341 10.2527 17.2628 9.65415C18.4455 8.96665 18.8515 7.4425 18.168 6.25025Z" />
        </svg>

        <svg id="document" width="20" height="22" viewBox="0 0 20 22" fill="none"  stroke="currentColor" stroke-width="2" stroke-linejoin="round" xmlns="http://www.w3.org/2000/svg">
        <path d="M13.595 14.6964H6.375" />
        <path d="M13.595 10.9366H6.375" />
        <path d="M9.13 7.17728H6.375" />
        <path fill-rule="evenodd" clip-rule="evenodd" d="M1.60938 11.0001C1.60938 17.9371 3.70737 20.2501 10.0004 20.2501C16.2944 20.2501 18.3914 17.9371 18.3914 11.0001C18.3914 4.06309 16.2944 1.75009 10.0004 1.75009C3.70737 1.75009 1.60938 4.06309 1.60938 11.0001Z" />
        </svg>




    </defs>
</svg>