<svg xmlns="http://www.w3.org/2000/svg" xmlns:xlink="http://www.w3.org/1999/xlink">
    <defs>
        <svg id="profile" width="23" height="23" viewBox="0 0 23 23" fill="none" xmlns="http://www.w3.org/2000/svg">
        <path d="M11.4994 11.0574C14.2767 11.0574 16.5281 8.806 16.5281 6.02872C16.5281 3.25143 14.2767 1 11.4994 1C8.72214 1 6.4707 3.25143 6.4707 6.02872C6.4707 8.806 8.72214 11.0574 11.4994 11.0574Z" fill="#2F9055" fill-opacity="0.2" stroke="#93C6A8" stroke-width="2" stroke-linecap="round" stroke-linejoin="round"/>
        <path d="M20.428 16.8405C22.5842 18.2804 21.2319 21.115 18.6391 21.115H4.36088C1.76811 21.115 0.415836 18.2804 2.57197 16.8405C5.12681 15.1342 8.19724 14.1395 11.5 14.1395C14.8028 14.1395 17.8732 15.1342 20.428 16.8405Z" fill="#2F9055" fill-opacity="0.2" stroke="#93C6A8" stroke-width="2"/>
        </svg>

        <svg id="address" width="17" height="21" viewBox="0 0 17 21" fill="none" xmlns="http://www.w3.org/2000/svg">
        <path d="M1.57782 9.06568L7.74209 1.88405C8.14115 1.41913 8.86066 1.41913 9.25971 1.88404L15.424 9.06568L15.7849 11.6403C16.0556 13.572 16.0424 15.5328 15.7455 17.4606L15.6851 17.853C15.5349 18.8285 14.6954 19.5486 13.7084 19.5486H3.29341C2.30638 19.5486 1.46694 18.8285 1.31671 17.853L1.25629 17.4606C0.959425 15.5328 0.946162 13.572 1.21693 11.6403L1.57782 9.06568Z" fill="#D5E9DD"/>
        <path d="M1.57782 9.06568L0.819016 8.41437C0.694411 8.55954 0.614064 8.73741 0.587507 8.92687L1.57782 9.06568ZM15.424 9.06568L16.4143 8.92687C16.3877 8.73741 16.3074 8.55954 16.1828 8.41437L15.424 9.06568ZM15.7455 17.4606L14.7572 17.3084L15.7455 17.4606ZM13.7084 18.5486H3.29341V20.5486H13.7084V18.5486ZM2.33663 9.717L8.5009 2.53536L6.98328 1.23273L0.819016 8.41437L2.33663 9.717ZM8.5009 2.53536L14.6652 9.717L16.1828 8.41437L10.0185 1.23273L8.5009 2.53536ZM14.4337 9.2045L14.7946 11.7791L16.7752 11.5015L16.4143 8.92687L14.4337 9.2045ZM14.7572 17.3084L14.6967 17.7008L16.6734 18.0052L16.7339 17.6128L14.7572 17.3084ZM2.30506 17.7008L2.24464 17.3084L0.267945 17.6128L0.328363 18.0052L2.30506 17.7008ZM2.20725 11.7791L2.56814 9.2045L0.587507 8.92687L0.226611 11.5015L2.20725 11.7791ZM2.24464 17.3084C1.96262 15.477 1.95002 13.6142 2.20725 11.7791L0.226611 11.5015C-0.0576943 13.5297 -0.0437688 15.5886 0.267945 17.6128L2.24464 17.3084ZM14.7946 11.7791C15.0518 13.6142 15.0392 15.477 14.7572 17.3084L16.7339 17.6128C17.0456 15.5886 17.0595 13.5297 16.7752 11.5015L14.7946 11.7791ZM8.5009 2.53536L8.5009 2.53536L10.0185 1.23273C9.22041 0.3029 7.78139 0.302903 6.98328 1.23273L8.5009 2.53536ZM3.29341 18.5486C2.7999 18.5486 2.38018 18.1885 2.30506 17.7008L0.328363 18.0052C0.553702 19.4685 1.81286 20.5486 3.29341 20.5486V18.5486ZM13.7084 20.5486C15.1889 20.5486 16.4481 19.4685 16.6734 18.0052L14.6967 17.7008C14.6216 18.1885 14.2019 18.5486 13.7084 18.5486V20.5486Z" fill="#93C6A8"/>
        <path d="M8.50021 12.0166C9.9738 12.0166 11.1684 13.2112 11.1684 14.6848V19.5486H5.83203V14.6848C5.83203 13.2112 7.02661 12.0166 8.50021 12.0166Z" fill="white" stroke="#93C6A8" stroke-width="2" stroke-linecap="round" stroke-linejoin="round"/>
        </svg>

        <svg id="address-info"  width="23" height="14" viewBox="0 0 23 14" fill="none" xmlns="http://www.w3.org/2000/svg">
        <path d="M1.83297 10.122C2.08214 11.522 3.27979 12.5827 4.69843 12.6811C6.89046 12.8332 9.16607 13 11.5 13C13.8339 13 16.1095 12.8332 18.3016 12.6811C19.7202 12.5827 20.9179 11.522 21.167 10.122C21.3479 9.10598 21.5 8.0631 21.5 7C21.5 5.93689 21.3479 4.89402 21.167 3.87805C20.9179 2.478 19.7202 1.41728 18.3016 1.31889C16.1095 1.16685 13.8339 1 11.5 1C9.16607 1 6.89046 1.16685 4.69843 1.31889C3.27979 1.41728 2.08214 2.478 1.83297 3.87804C1.65215 4.89402 1.5 5.93689 1.5 7C1.5 8.0631 1.65215 9.10598 1.83297 10.122Z" fill="#D0E6DA"/>
        <path d="M21.167 10.122L21.9054 10.2534L21.167 10.122ZM4.69843 1.31889L4.64653 0.570683L4.69843 1.31889ZM4.69843 12.6811L4.64653 13.4293L4.69843 12.6811ZM11.5 12.25C9.19711 12.25 6.949 12.0854 4.75032 11.9329L4.64653 13.4293C6.83192 13.5809 9.13504 13.75 11.5 13.75V12.25ZM18.2497 11.9329C16.051 12.0854 13.8029 12.25 11.5 12.25V13.75C13.865 13.75 16.1681 13.5809 18.3535 13.4293L18.2497 11.9329ZM21.9054 10.2534C22.0883 9.22593 22.25 8.13074 22.25 7H20.75C20.75 7.99547 20.6074 8.98603 20.4286 9.99054L21.9054 10.2534ZM22.25 7C22.25 5.86926 22.0883 4.77406 21.9054 3.74663L20.4286 4.00946C20.6074 5.01397 20.75 6.00453 20.75 7H22.25ZM11.5 1.75C13.8029 1.75 16.051 1.91459 18.2497 2.06709L18.3535 0.570683C16.1681 0.419106 13.865 0.25 11.5 0.25V1.75ZM4.75032 2.06709C6.949 1.91459 9.19711 1.75 11.5 1.75V0.25C9.13504 0.25 6.83192 0.419106 4.64653 0.570683L4.75032 2.06709ZM1.09457 3.74663C0.911712 4.77406 0.75 5.86926 0.75 7H2.25C2.25 6.00453 2.39259 5.01397 2.57136 4.00946L1.09457 3.74663ZM0.75 7C0.75 8.13074 0.911712 9.22593 1.09457 10.2534L2.57136 9.99054C2.39259 8.98603 2.25 7.99547 2.25 7H0.75ZM21.9054 3.74663C21.595 2.00266 20.11 0.692515 18.3535 0.570683L18.2497 2.06709C19.3304 2.14205 20.2407 2.95335 20.4286 4.00946L21.9054 3.74663ZM18.3535 13.4293C20.11 13.3075 21.595 11.9973 21.9054 10.2534L20.4286 9.99054C20.2407 11.0467 19.3304 11.858 18.2497 11.9329L18.3535 13.4293ZM4.64653 0.570683C2.88999 0.692515 1.40495 2.00266 1.09457 3.74663L2.57136 4.00946C2.75932 2.95334 3.66959 2.14205 4.75032 2.06709L4.64653 0.570683ZM4.75032 11.9329C3.66959 11.858 2.75933 11.0467 2.57136 9.99054L1.09457 10.2534C1.40495 11.9973 2.88999 13.3075 4.64653 13.4293L4.75032 11.9329Z" fill="#93C6A8"/>
        <path d="M4.72526 7.01349C4.77865 7.49339 5.16754 7.87721 5.6477 7.92819C6.01063 7.96672 6.38338 8 6.76347 8C7.14356 8 7.5163 7.96672 7.87923 7.92819C8.35939 7.87721 8.74828 7.49339 8.80167 7.01349C8.83839 6.68342 8.86873 6.3449 8.86873 6C8.86873 5.6551 8.83839 5.31658 8.80167 4.98651C8.74828 4.50661 8.35939 4.12279 7.87923 4.07181C7.5163 4.03328 7.14356 4 6.76347 4C6.38338 4 6.01063 4.03328 5.6477 4.07181C5.16754 4.12279 4.77865 4.50661 4.72526 4.98651C4.68855 5.31658 4.6582 5.6551 4.6582 6C4.6582 6.3449 4.68855 6.68342 4.72526 7.01349Z" fill="white"/>
        <path d="M7.87923 7.92819L7.80005 7.18238L7.87923 7.92819ZM5.6477 4.07181L5.72688 4.81762L5.6477 4.07181ZM6.76347 7.25C6.42452 7.25 6.08395 7.22029 5.72688 7.18238L5.56852 8.674C5.93732 8.71315 6.34223 8.75 6.76347 8.75V7.25ZM7.80005 7.18238C7.44298 7.22029 7.10241 7.25 6.76347 7.25V8.75C7.1847 8.75 7.58962 8.71315 7.95841 8.674L7.80005 7.18238ZM9.54707 7.09641C9.58475 6.7577 9.61873 6.38669 9.61873 6H8.11873C8.11873 6.30311 8.09202 6.60913 8.05627 6.93057L9.54707 7.09641ZM9.61873 6C9.61873 5.61331 9.58475 5.2423 9.54707 4.90359L8.05627 5.06943C8.09202 5.39087 8.11873 5.69689 8.11873 6H9.61873ZM6.76347 4.75C7.10241 4.75 7.44298 4.77971 7.80005 4.81762L7.95841 3.326C7.58962 3.28685 7.1847 3.25 6.76347 3.25V4.75ZM5.72688 4.81762C6.08395 4.77971 6.42452 4.75 6.76347 4.75V3.25C6.34223 3.25 5.93732 3.28685 5.56852 3.326L5.72688 4.81762ZM3.97986 4.90359C3.94218 5.2423 3.9082 5.61331 3.9082 6H5.4082C5.4082 5.69689 5.43491 5.39087 5.47067 5.06943L3.97986 4.90359ZM3.9082 6C3.9082 6.38669 3.94218 6.7577 3.97986 7.09641L5.47067 6.93057C5.43491 6.60913 5.4082 6.30311 5.4082 6H3.9082ZM9.54707 4.90359C9.45442 4.07068 8.78566 3.41383 7.95841 3.326L7.80005 4.81762C7.93313 4.83175 8.04215 4.94254 8.05627 5.06943L9.54707 4.90359ZM7.95841 8.674C8.78566 8.58617 9.45442 7.92932 9.54707 7.09641L8.05627 6.93057C8.04215 7.05746 7.93313 7.16825 7.80005 7.18238L7.95841 8.674ZM5.56852 3.326C4.74128 3.41383 4.07252 4.07068 3.97986 4.90359L5.47067 5.06943C5.48478 4.94254 5.5938 4.83175 5.72688 4.81762L5.56852 3.326ZM5.72688 7.18238C5.5938 7.16825 5.48478 7.05746 5.47067 6.93057L3.97986 7.09641C4.07252 7.92932 4.74128 8.58617 5.56852 8.674L5.72688 7.18238Z" fill="#93C6A8"/>
        <path d="M16.2363 5H12.0258" stroke="#93C6A8" stroke-width="1.5" stroke-linecap="round" stroke-linejoin="round"/>
        <path d="M16.2363 8H12.0258" stroke="#93C6A8" stroke-width="1.5" stroke-linecap="round" stroke-linejoin="round"/>
        </svg>

        <svg id="unlock" width="23" height="26" viewBox="0 0 23 26" fill="none" xmlns="http://www.w3.org/2000/svg">
        <path d="M1.98785 22.1945C2.19534 23.6234 3.36592 24.7421 4.80764 24.8209C6.95386 24.9382 9.09244 24.9999 11.5 24.9999C13.9076 24.9999 16.0461 24.9382 18.1924 24.8209C19.6341 24.7421 20.8047 23.6234 21.0121 22.1945C21.2561 20.5146 21.5 18.7776 21.5 16.9999C21.5 15.2222 21.2561 13.4853 21.0121 11.8054C20.8047 10.3765 19.6341 9.2578 18.1924 9.179C16.0461 9.0617 13.9076 8.99994 11.5 8.99994C9.09244 8.99994 6.95386 9.0617 4.80764 9.179C3.36592 9.2578 2.19534 10.3765 1.98785 11.8054C1.74391 13.4853 1.5 15.2222 1.5 16.9999C1.5 18.7776 1.74391 20.5146 1.98785 22.1945Z" fill="#D0E6DA"/>
        <path d="M21.0121 22.1945L20.0225 22.0508L21.0121 22.1945ZM1.98785 11.8054L0.99823 11.6617L1.98785 11.8054ZM1.98785 22.1945L0.99823 22.3382L1.98785 22.1945ZM11.5 23.9999C9.1106 23.9999 6.99021 23.9387 4.86222 23.8224L4.75307 25.8194C6.91751 25.9377 9.07429 25.9999 11.5 25.9999V23.9999ZM18.1378 23.8224C16.0098 23.9387 13.8894 23.9999 11.5 23.9999V25.9999C13.9257 25.9999 16.0825 25.9377 18.2469 25.8194L18.1378 23.8224ZM22.0018 22.3382C22.2448 20.6645 22.5 18.8598 22.5 16.9999H20.5C20.5 18.6955 20.2674 20.3647 20.0225 22.0508L22.0018 22.3382ZM22.5 16.9999C22.5 15.14 22.2448 13.3354 22.0018 11.6617L20.0225 11.9491C20.2674 13.6352 20.5 15.3044 20.5 16.9999H22.5ZM11.5 9.99994C13.8894 9.99994 16.0098 10.0612 18.1378 10.1775L18.2469 8.18049C16.0825 8.06219 13.9257 7.99994 11.5 7.99994V9.99994ZM4.86222 10.1775C6.99021 10.0612 9.1106 9.99994 11.5 9.99994V7.99994C9.07429 7.99994 6.91751 8.06219 4.75307 8.18049L4.86222 10.1775ZM0.99823 11.6617C0.755189 13.3354 0.5 15.14 0.5 16.9999H2.5C2.5 15.3044 2.73263 13.6352 2.97747 11.9491L0.99823 11.6617ZM0.5 16.9999C0.5 18.8598 0.755189 20.6645 0.99823 22.3382L2.97747 22.0508C2.73263 20.3647 2.5 18.6955 2.5 16.9999H0.5ZM22.0018 11.6617C21.7291 9.78415 20.1865 8.2865 18.2469 8.18049L18.1378 10.1775C19.0817 10.2291 19.8802 10.9689 20.0225 11.9491L22.0018 11.6617ZM18.2469 25.8194C20.1865 25.7134 21.7291 24.2157 22.0018 22.3382L20.0225 22.0508C19.8802 23.031 19.0817 23.7708 18.1378 23.8224L18.2469 25.8194ZM4.75307 8.18049C2.81353 8.2865 1.27087 9.78415 0.99823 11.6617L2.97747 11.9491C3.11981 10.9689 3.91831 10.2291 4.86222 10.1775L4.75307 8.18049ZM4.86222 23.8224C3.91831 23.7708 3.11981 23.031 2.97747 22.0508L0.99823 22.3382C1.27087 24.2157 2.81353 25.7134 4.75307 25.8194L4.86222 23.8224Z" fill="#93C6A8"/>
        <path d="M15.4602 2.6402C14.41 1.59 12.9856 1 11.5004 1C10.0152 1 8.5908 1.59 7.54059 2.6402C6.49039 3.69041 5.90039 5.11479 5.90039 6.6V9" stroke="#93C6A8" stroke-width="2" stroke-linecap="round" stroke-linejoin="round"/>
        <circle cx="11.4996" cy="17.0001" r="2.4" fill="#93C6A8"/>
        </svg>

        <svg id="keypad" width="26" height="26" viewBox="0 0 26 26" fill="none" xmlns="http://www.w3.org/2000/svg">
        <path d="M3.71154 6.42308C5.20908 6.42308 6.42308 5.20908 6.42308 3.71154C6.42308 2.214 5.20908 1 3.71154 1C2.214 1 1 2.214 1 3.71154C1 5.20908 2.214 6.42308 3.71154 6.42308Z" fill="#D0E6DA" stroke="#A3C09D" stroke-width="2" stroke-linecap="round" stroke-linejoin="round"/>
        <path d="M3.71154 15.4615C5.20908 15.4615 6.42308 14.2475 6.42308 12.75C6.42308 11.2524 5.20908 10.0385 3.71154 10.0385C2.214 10.0385 1 11.2524 1 12.75C1 14.2475 2.214 15.4615 3.71154 15.4615Z" fill="#D0E6DA" stroke="#A3C09D" stroke-width="2" stroke-linecap="round" stroke-linejoin="round"/>
        <path d="M12.7506 6.42308C14.2481 6.42308 15.4621 5.20908 15.4621 3.71154C15.4621 2.214 14.2481 1 12.7506 1C11.2531 1 10.0391 2.214 10.0391 3.71154C10.0391 5.20908 11.2531 6.42308 12.7506 6.42308Z" fill="#D0E6DA" stroke="#A3C09D" stroke-width="2" stroke-linecap="round" stroke-linejoin="round"/>
        <path d="M12.7506 15.4615C14.2481 15.4615 15.4621 14.2475 15.4621 12.75C15.4621 11.2524 14.2481 10.0385 12.7506 10.0385C11.2531 10.0385 10.0391 11.2524 10.0391 12.75C10.0391 14.2475 11.2531 15.4615 12.7506 15.4615Z" fill="#D0E6DA" stroke="#A3C09D" stroke-width="2" stroke-linecap="round" stroke-linejoin="round"/>
        <path d="M12.7506 24.5C14.2481 24.5 15.4621 23.286 15.4621 21.7884C15.4621 20.2909 14.2481 19.0769 12.7506 19.0769C11.2531 19.0769 10.0391 20.2909 10.0391 21.7884C10.0391 23.286 11.2531 24.5 12.7506 24.5Z" fill="#D0E6DA" stroke="#A3C09D" stroke-width="2" stroke-linecap="round" stroke-linejoin="round"/>
        <path d="M21.7877 6.42308C23.2853 6.42308 24.4992 5.20908 24.4992 3.71154C24.4992 2.214 23.2853 1 21.7877 1C20.2902 1 19.0762 2.214 19.0762 3.71154C19.0762 5.20908 20.2902 6.42308 21.7877 6.42308Z" fill="#D0E6DA" stroke="#A3C09D" stroke-width="2" stroke-linecap="round" stroke-linejoin="round"/>
        <path d="M21.7877 15.4615C23.2853 15.4615 24.4992 14.2475 24.4992 12.75C24.4992 11.2524 23.2853 10.0385 21.7877 10.0385C20.2902 10.0385 19.0762 11.2524 19.0762 12.75C19.0762 14.2475 20.2902 15.4615 21.7877 15.4615Z" fill="#D0E6DA" stroke="#A3C09D" stroke-width="2" stroke-linecap="round" stroke-linejoin="round"/>
        </svg>

        <svg id="email" width="17" height="16" viewBox="0 0 17 16" fill="none" xmlns="http://www.w3.org/2000/svg">
        <path d="M1.62913 12.339C1.74827 13.2967 2.51979 14.052 3.4798 14.1516C5.17577 14.3274 6.93949 14.5287 8.75 14.5287C10.5605 14.5287 12.3242 14.3274 14.0202 14.1516C14.9802 14.052 15.7517 13.2967 15.8709 12.339C16.0543 10.8645 16.25 9.33396 16.25 7.76433C16.25 6.1947 16.0543 4.66419 15.8709 3.18969C15.7517 2.23191 14.9802 1.47663 14.0202 1.37709C12.3242 1.20123 10.5605 1 8.75 1C6.93949 1 5.17577 1.20123 3.4798 1.37708C2.51979 1.47663 1.74827 2.23191 1.62913 3.18969C1.44571 4.66419 1.25 6.1947 1.25 7.76433C1.25 9.33396 1.44571 10.8645 1.62913 12.339Z" fill="#D0E6DA" stroke="#B9DAC7" stroke-width="1.5" stroke-linejoin="round"/>
        <path d="M1.62109 3.20947L7.51129 7.8537C8.23754 8.42632 9.26168 8.42632 9.98792 7.8537L15.8781 3.20947" stroke="#B9DAC7" stroke-width="1.5" stroke-linejoin="round"/>
        </svg>

        <svg id="date" width="17" height="18" viewBox="0 0 17 18" fill="none" xmlns="http://www.w3.org/2000/svg">
        <path d="M1.30827 13.574C1.4775 15.0125 2.63897 16.1542 4.08513 16.2346C5.49674 16.3131 6.92694 16.3541 8.5 16.3541C10.0731 16.3541 11.5033 16.3131 12.9149 16.2346C14.361 16.1542 15.5225 15.0125 15.6917 13.574C15.8528 12.2048 16 10.7937 16 9.35197C16 7.91021 15.8528 6.49911 15.6917 5.12996C15.5225 3.69148 14.361 2.54971 12.9149 2.46933C11.5033 2.39088 10.0731 2.34985 8.5 2.34985C6.92694 2.34985 5.49674 2.39088 4.08513 2.46933C2.63897 2.54971 1.4775 3.69148 1.30827 5.12996C1.14719 6.49911 1 7.91021 1 9.35197C1 10.7937 1.14719 12.2048 1.30827 13.574Z" fill="white"/>
        <path d="M5.74023 1L5.74023 4.11895" stroke="#93C6A8" stroke-width="2" stroke-linecap="round"/>
        <path d="M11.252 1L11.252 4.11895" stroke="#93C6A8" stroke-width="2" stroke-linecap="round"/>
        <path d="M15.4629 8.19165L1.53803 8.19165L1.7335 3.23562L8.41836 2.75077L15.4629 3.23563L15.4629 8.19165Z" fill="#D5E9DD"/>
        <path d="M15.6917 5.12996L14.6986 5.2468L15.6917 5.12996ZM12.9149 2.46933L12.8594 3.46779L12.9149 2.46933ZM15.6917 13.574L14.6986 13.4572L15.6917 13.574ZM4.08513 2.46933L4.02964 1.47087L4.08513 2.46933ZM8.5 15.3541C6.94503 15.3541 5.53334 15.3136 4.14063 15.2362L4.02964 17.2331C5.46013 17.3126 6.90884 17.3541 8.5 17.3541V15.3541ZM12.8594 15.2362C11.4667 15.3136 10.055 15.3541 8.5 15.3541V17.3541C10.0912 17.3541 11.5399 17.3126 12.9704 17.2331L12.8594 15.2362ZM16.6849 13.6908C16.8464 12.3178 17 10.8568 17 9.35197H15C15 10.7307 14.8592 12.0919 14.6986 13.4572L16.6849 13.6908ZM17 9.35197C17 7.8472 16.8464 6.38617 16.6849 5.01312L14.6986 5.2468C14.8592 6.61205 15 7.97323 15 9.35197H17ZM8.5 3.34985C10.055 3.34985 11.4667 3.39039 12.8594 3.46779L12.9704 1.47087C11.5399 1.39137 10.0912 1.34985 8.5 1.34985V3.34985ZM4.14063 3.46779C5.53334 3.39039 6.94503 3.34985 8.5 3.34985V1.34985C6.90884 1.34985 5.46013 1.39137 4.02964 1.47087L4.14063 3.46779ZM0.315115 5.01312C0.153582 6.38617 0 7.8472 0 9.35197H2C2 7.97323 2.1408 6.61205 2.30142 5.2468L0.315115 5.01312ZM0 9.35197C0 10.8568 0.153582 12.3178 0.315115 13.6908L2.30142 13.4572C2.1408 12.0919 2 10.7307 2 9.35197H0ZM16.6849 5.01312C16.4616 3.11503 14.9246 1.57949 12.9704 1.47087L12.8594 3.46779C13.7974 3.51993 14.5834 4.26793 14.6986 5.2468L16.6849 5.01312ZM12.9704 17.2331C14.9246 17.1245 16.4616 15.5889 16.6849 13.6908L14.6986 13.4572C14.5834 14.436 13.7974 15.184 12.8594 15.2362L12.9704 17.2331ZM4.02964 1.47087C2.07538 1.57949 0.538416 3.11503 0.315115 5.01312L2.30142 5.2468C2.41658 4.26793 3.20256 3.51993 4.14063 3.46779L4.02964 1.47087ZM4.14063 15.2362C3.20256 15.184 2.41658 14.436 2.30142 13.4572L0.315115 13.6908C0.538417 15.5889 2.07538 17.1245 4.02964 17.2331L4.14063 15.2362Z" fill="#93C6A8"/>
        <path d="M1.35938 7.72461H15.7155" stroke="#93C6A8" stroke-width="2"/>
        </svg>

        <svg id="globe" width="15" height="15" viewBox="0 0 15 15" fill="none" xmlns="http://www.w3.org/2000/svg">
        <path d="M7.19562 13.3912C10.6174 13.3912 13.3912 10.6174 13.3912 7.19562C13.3912 3.77387 10.6174 1 7.19562 1C3.77387 1 1 3.77387 1 7.19562C1 10.6174 3.77387 13.3912 7.19562 13.3912Z" fill="#D0E6DA" stroke="#93C6A8" stroke-width="1.5" stroke-linecap="round" stroke-linejoin="round"/>
        <path d="M3.14459 9.57854C3.58699 9.57854 4.01126 9.4028 4.32408 9.08998C4.6369 8.77716 4.81264 8.35289 4.81264 7.91049V6.48074C4.81264 6.03834 4.98838 5.61407 5.3012 5.30125C5.61402 4.98843 6.0383 4.81269 6.48069 4.81269C6.92309 4.81269 7.34736 4.63694 7.66018 4.32412C7.973 4.0113 8.14874 3.58703 8.14874 3.14463V1.07286C7.83805 1.02489 7.51974 1 7.19562 1C3.77387 1 1 3.77387 1 7.19562C1 8.04003 1.16893 8.84499 1.47483 9.57854H3.14459Z" fill="white" stroke="#93C6A8" stroke-width="1.5" stroke-linecap="round" stroke-linejoin="round"/>
        <path d="M13.3903 7.10001C12.9132 6.85259 12.3842 6.72202 11.8467 6.71906H9.81649C9.37409 6.71906 8.94982 6.8948 8.637 7.20762C8.32418 7.52044 8.14844 7.94471 8.14844 8.38711C8.14844 8.8295 8.32418 9.25378 8.637 9.5666C8.94982 9.87942 9.37409 10.0552 9.81649 10.0552C10.1325 10.0552 10.4355 10.1807 10.659 10.4041C10.8824 10.6276 11.008 10.9306 11.008 11.2466V12.0759H11.0127C12.4516 10.9488 13.3794 9.19923 13.3909 7.23249V7.15879C13.3908 7.13917 13.3906 7.11958 13.3903 7.10001Z" fill="white" stroke="#93C6A8" stroke-width="1.5" stroke-linecap="round" stroke-linejoin="round"/>
        </svg>

        <svg id="location" width="17" height="17" viewBox="0 0 17 17" fill="none" xmlns="http://www.w3.org/2000/svg">
        <path d="M8.12984 1.15127C5.70051 2.16532 3.30625 3.58914 1.63777 5.42275C1.36047 5.72749 1.58798 6.19231 2 6.19231H15C15.412 6.19231 15.6395 5.72749 15.3622 5.42275C13.6937 3.58914 11.2995 2.16532 8.87016 1.15127C8.6332 1.05236 8.3668 1.05236 8.12984 1.15127Z" fill="#D0E6DA" stroke="#93C6A8" stroke-width="2" stroke-linecap="round" stroke-linejoin="round"/>
        <path d="M3.88386 11.9615C2.4896 11.9615 1.84413 13.0847 1.64584 14.4263C1.56509 14.9726 2.02389 15.4231 2.57617 15.4231H14.4223C14.9746 15.4231 15.4334 14.9726 15.3527 14.4263C15.1544 13.0847 14.5089 11.9615 13.1146 11.9615H3.88386Z" fill="#D0E6DA" stroke="#93C6A8" stroke-width="2" stroke-linecap="round" stroke-linejoin="round"/>
        <path d="M3.88477 11.9616V6.19232" stroke="#93C6A8" stroke-width="2" stroke-linecap="round" stroke-linejoin="round"/>
        <path d="M8.5 11.9616V6.19232" stroke="#93C6A8" stroke-width="2" stroke-linecap="round" stroke-linejoin="round"/>
        <path d="M13.1152 11.9616V6.19232" stroke="#93C6A8" stroke-width="2" stroke-linecap="round" stroke-linejoin="round"/>
        </svg>

        <svg id="map" width="17" height="16" viewBox="0 0 17 16" fill="none" xmlns="http://www.w3.org/2000/svg">
        <path d="M1.96877 14.3415C2.44507 14.2564 2.93321 14.0734 3.4539 13.9068C4.24912 13.6524 5.04417 13.3633 5.77548 13.1824C5.92276 13.1459 6.07661 13.1485 6.22406 13.1842L11 14.3416C11.7916 14.5148 12.5765 14.1876 13.4539 13.9068C13.9956 13.7335 14.5373 13.544 15.0588 13.3837C15.603 13.2164 16 12.7241 16 12.1548V2.02852C16 1.45918 15.5963 0.969619 15.0291 1.01879C14.3984 1.07347 13.724 1.23646 13.2433 1.36056C12.651 1.51351 11.967 1.83533 11.3064 2.13006C11.108 2.2186 10.8858 2.23733 10.6746 2.18615L5.99999 1.05339C5.20842 0.880153 3.99132 1.16743 3.24333 1.36056C2.77611 1.4812 2.2519 1.70689 1.72711 1.94149C1.28607 2.13865 1 2.57774 1 3.06085V13.3664C1 13.9358 1.40829 14.4415 1.96877 14.3415Z" fill="#D0E6DA" stroke="#93C6A8" stroke-width="2" stroke-linejoin="round"/>
        <path d="M10.9918 14.3396L6.27145 13.1957C6.18224 13.1741 6.09109 13.1625 6 13.1618V1.20718C6 1.15608 6.00318 1.10549 6.00937 1.05566L10.6057 2.16946C10.7355 2.20092 10.8688 2.21056 11 2.19837V14.1968C11 14.2448 10.9972 14.2925 10.9918 14.3396Z" fill="white" stroke="#93C6A8" stroke-width="2" stroke-linejoin="round"/>
        </svg>


        <svg id="upload" width="24" height="24" viewBox="0 0 24 24" fill="none" xmlns="http://www.w3.org/2000/svg">
        <path d="M19.35 10.04C18.67 6.59 15.64 4 12 4C9.11 4 6.6 5.64 5.35 8.04C2.34 8.36 0 10.91 0 14C0 17.31 2.69 20 6 20H19C21.76 20 24 17.76 24 15C24 12.36 21.95 10.22 19.35 10.04ZM14 13V17H10V13H7L11.65 8.35C11.85 8.15 12.16 8.15 12.36 8.35L17 13H14Z" fill="#A2CEB5"/>
        </svg>



    </defs>
</svg>
